<svg width="31" height="25" viewBox="0 0 31 25" fill="none" xmlns="http://www.w3.org/2000/svg">
<path d="M18.8532 24.4847C18.792 24.4847 18.7155 24.4847 18.6543 24.4847C16.5578 24.3929 14.0022 22.7861 13.0534 18.5778L10.6814 7.92692L9.10524 14.4766C8.76858 15.8538 7.54435 16.8179 6.12117 16.8179H3.06059C1.37726 16.8179 0 15.4407 0 13.7573C0 12.074 1.37726 10.6967 3.06059 10.6967H3.70331L4.88164 5.78451C5.87633 1.53029 8.52373 0 10.6814 0H10.6968C12.8698 0 15.5172 1.5609 16.4966 5.90693L18.8991 16.6649L20.0315 12.9004C20.4141 11.6149 21.6077 10.7274 22.9544 10.7274H27.5453C29.2286 10.7274 30.6059 12.1046 30.6059 13.7879C30.6059 15.4713 29.2286 16.8485 27.5453 16.8485H25.2345L24.4235 19.5571C23.2452 23.1992 20.812 24.4847 18.8532 24.4847Z" fill="#CDCDCD"/>
</svg>
